<svg xmlns="http://www.w3.org/2000/svg" viewBox="0 0 238 238"><defs><style>.cls-1{fill:#ec1f27;}.cls-2{fill:#fbed24;}</style></defs><g id="Layer_2" data-name="Layer 2"><g id="Layer_1-2" data-name="Layer 1"><rect class="cls-1" width="238" height="238"/><path class="cls-2" d="M32,36.16h9V50.82l3.25,3.26h3.26V36.16h9V63H40.14L32,54.89Z"/><path class="cls-2" d="M76,36.16h9V63H76V52.86l-6.51,6.51V63h-9V36.16h9V46.34L76,39.83Z"/><path class="cls-2" d="M98,48.38v5.7h15.47v9H89V44.31l8.14-8.15h16.29v9H101.21Z"/><path class="cls-2" d="M126.46,36.16V54.08H133V49.6h9V63H117.5V36.16Z"/><path class="cls-2" d="M170.43,45.12H158.21l4.48,4.48-4.48,4.48h12.22v9H146v-9l4.48-4.48L146,45.12v-9h24.43Z"/><path class="cls-2" d="M47.47,75.16h9V102H40.14L32,93.89V84.12h9v5.7l3.25,3.26h3.26Z"/><path class="cls-2" d="M60.5,102V75.16H84.93V102Zm9-17.92v9H76v-9Z"/><path class="cls-2" d="M113.43,84.12H101.21l4.48,4.48-4.48,4.48h12.22v9H89v-9l4.48-4.48L89,84.12v-9h24.43Z"/><path class="cls-2" d="M125,74.15a47.34,47.34,0,0,1-3.83,9.65l-2.28.28a57.18,57.18,0,0,0,2.41-9.57Z"/><path class="cls-2" d="M152.36,84.12H142.18l9,9h1.22v9H127.93v-9h10.18l-9-9h-1.22v-9h24.43Z"/><path class="cls-2" d="M32,141V114.16H56.43v10.18l-3.26,3.26,3.26,3.26V141Zm9-17.92v9h4.48L41,127.6l4.48-4.48Z"/><path class="cls-2" d="M60.5,141V114.16H84.93V141Zm9-17.92v9H76v-9Z"/><path class="cls-2" d="M89,114.16h9v3.67l3.25,3.25,3.26-3.25v-3.67h9v7.74l-5.7,5.7,5.7,5.7V141h-9v-3.67l-3.26-3.26L98,137.37V141H89V133.3l5.7-5.7L89,121.9Z"/><rect x="152.26" y="152.26" width="60.74" height="60.74"/></g></g></svg>